<?xml version="1.0"?>
<svg width="448" height="512" xmlns="http://www.w3.org/2000/svg" xmlns:svg="http://www.w3.org/2000/svg" xmlns:se="http://svg-edit.googlecode.com" class="svg-inline--fa fa-snowflake fa-w-14" data-icon="snowflake" data-prefix="far">
 <g class="layer">
  <title>Layer 1</title>
  <path d="m440.1,355.2l-39.2,-23l34.1,-9.3c8.4,-2.3 13.4,-11.1 11.1,-19.6l-4.1,-15.5c-2.2,-8.5 -10.9,-13.6 -19.3,-11.3l-79.7,21.7l-71.8,-42.2l71.9,-42.2l79.7,21.7c8.4,2.3 17,-2.8 19.3,-11.3l4.1,-15.5c2.2,-8.5 -2.7,-17.3 -11.1,-19.6l-34.1,-9.3l39.2,-23c7.5,-4.4 10.1,-14.2 5.8,-21.9l-7.9,-13.9c-4.3,-7.7 -14,-10.3 -21.5,-5.9l-39.2,23l9.1,-34.7c2.2,-8.5 -2.7,-17.3 -11.1,-19.6l-15.2,-4.1c-8.4,-2.3 -17,2.8 -19.3,11.3l-21.3,81l-71.9,42.2l0,-84.5l58.3,-59.3c6.1,-6.2 6.1,-16.4 0,-22.6l-11.1,-11.3c-6.1,-6.2 -16.1,-6.2 -22.2,0l-24.9,25.4l0,-45.9c0,-8.8 -7,-16 -15.7,-16l-15.7,0c-8.7,0 -15.7,7.2 -15.7,16l0,46.1l-24.9,-25.4c-6.1,-6.2 -16.1,-6.2 -22.2,0l-11.5,11.3c-6.1,6.2 -6.1,16.4 0,22.6l58.3,59.3l0,84.5l-71.9,-42.2l-21.3,-81c-2.2,-8.5 -10.9,-13.6 -19.3,-11.3l-15.2,4.1c-8.4,2.3 -13.4,11.1 -11.1,19.6l9.1,34.7l-39.2,-23c-7.5,-4.4 -17.1,-1.8 -21.5,5.9l-7.9,13.9c-4.3,7.7 -1.8,17.4 5.8,21.9l39.2,23l-34.1,9.1c-8.4,2.3 -13.4,11.1 -11.1,19.6l4.1,15.5c2.2,8.5 10.9,13.6 19.3,11.3l79.7,-21.7l71.9,42.2l-71.9,42.2l-79.7,-21.7c-8.4,-2.3 -17,2.8 -19.3,11.3l-4.1,15.5c-2.2,8.5 2.7,17.3 11.1,19.6l34.1,9.3l-39.2,23c-7.5,4.4 -10.1,14.2 -5.8,21.9l7.9,13.9c4.3,7.7 14,10.3 21.5,5.9l39.2,-23l-9.1,34.7c-2.2,8.5 2.7,17.3 11.1,19.6l15.2,4.1c8.4,2.3 17,-2.8 19.3,-11.3l21.3,-81l71.9,-42.2l0,84.5l-58.3,59.3c-6.1,6.2 -6.1,16.4 0,22.6l11.1,11.3c6.1,6.2 16.1,6.2 22.2,0l24.9,-25.4l0,45.9c0,8.8 7,16 15.7,16l15.7,0c8.7,0 15.7,-7.2 15.7,-16l0,-46.1l24.9,25.4c6.1,6.2 16.1,6.2 22.2,0l11.1,-11.3c6.1,-6.2 6.1,-16.4 0,-22.6l-58.3,-59.3l0,-84.5l71.9,42.2l21.3,81c2.2,8.5 10.9,13.6 19.3,11.3l15.2,-4.1c8.4,-2.3 13.4,-11.1 11.1,-19.6l-9.1,-34.7l39.2,23c7.5,4.4 17.1,1.8 21.5,-5.9l7.9,-13.9c4.6,-7.5 2.1,-17.3 -5.5,-21.7z" fill="#c7ffff" id="svg_1"/>
 </g>
</svg>