<?xml version="1.0"?>
<svg width="512" height="512" xmlns="http://www.w3.org/2000/svg" xmlns:svg="http://www.w3.org/2000/svg" xmlns:se="http://svg-edit.googlecode.com" class="svg-inline--fa fa-clock fa-w-16" data-icon="clock" data-prefix="far">
 <g class="layer">
  <title>Layer 1</title>
  <path d="m256,8c-137,0 -248,111 -248,248s111,248 248,248s248,-111 248,-248s-111,-248 -248,-248zm0,448c-110.5,0 -200,-89.5 -200,-200s89.5,-200 200,-200s200,89.5 200,200s-89.5,200 -200,200zm61.8,-104.4l-84.9,-61.7c-3.1,-2.3 -4.9,-5.9 -4.9,-9.7l0,-164.2c0,-6.6 5.4,-12 12,-12l32,0c6.6,0 12,5.4 12,12l0,141.7l66.8,48.6c5.4,3.9 6.5,11.4 2.6,16.8l-18.8,25.9c-3.9,5.3 -11.4,6.5 -16.8,2.6z" fill="#4c4c4c" id="svg_1"/>
 </g>
</svg>