<?xml version="1.0"?>
<svg width="512" height="512" xmlns="http://www.w3.org/2000/svg" xmlns:svg="http://www.w3.org/2000/svg" xmlns:se="http://svg-edit.googlecode.com" class="svg-inline--fa fa-sun fa-w-16" data-icon="sun" data-prefix="far">
 <g class="layer">
  <title>Layer 1</title>
  <path d="m494.2,221.9l-59.8,-40.5l13.7,-71c2.6,-13.2 -1.6,-26.8 -11.1,-36.4c-9.6,-9.5 -23.2,-13.7 -36.2,-11.1l-70.9,13.7l-40.4,-59.9c-15.1,-22.3 -51.9,-22.3 -67,0l-40.4,59.9l-70.8,-13.7c-13.3,-2.5 -26.8,1.6 -36.3,11.2c-9.5,9.6 -13.7,23.1 -11.1,36.3l13.7,71l-59.8,40.5c-11.2,7.6 -17.8,20.1 -17.8,33.6s6.7,26 17.8,33.5l59.8,40.5l-13.7,71c-2.6,13.2 1.6,26.8 11.1,36.3c9.5,9.5 22.9,13.7 36.3,11.1l70.8,-13.7l40.4,59.9c7.5,11.2 20.1,17.9 33.5,17.9s26,-6.7 33.5,-17.8l40.4,-59.9l70.9,13.7c13.4,2.7 26.8,-1.6 36.3,-11.1c9.5,-9.5 13.6,-23.1 11.1,-36.3l-13.7,-71l59.8,-40.5c11.1,-7.5 17.8,-20.1 17.8,-33.5c-0.1,-13.6 -6.7,-26.1 -17.9,-33.7zm-112.9,85.6l17.6,91.2l-91,-17.6l-51.9,76.9l-51.9,-77l-90.9,17.6l17.6,-91.2l-76.8,-52l76.8,-52l-17.6,-91.2l91,17.6l51.8,-76.8l51.9,76.9l91,-17.6l-17.6,91.1l76.8,52l-76.8,52.1zm-125.3,-155.5c-57.3,0 -104,46.7 -104,104s46.7,104 104,104s104,-46.7 104,-104s-46.7,-104 -104,-104zm0,160c-30.9,0 -56,-25.1 -56,-56s25.1,-56 56,-56s56,25.1 56,56s-25.1,56 -56,56z" fill="#ffffff" id="svg_1"/>
 </g>
</svg>