<?xml version="1.0"?>
<svg width="496" height="512" xmlns="http://www.w3.org/2000/svg" xmlns:svg="http://www.w3.org/2000/svg" xmlns:se="http://svg-edit.googlecode.com" class="svg-inline--fa fa-smile fa-w-16" data-icon="smile" data-prefix="far">
 <g class="layer">
  <title>Layer 1</title>
  <path d="m248,8c-137,0 -248,111 -248,248s111,248 248,248s248,-111 248,-248s-111,-248 -248,-248zm0,448c-110.3,0 -200,-89.7 -200,-200s89.7,-200 200,-200s200,89.7 200,200s-89.7,200 -200,200zm-80,-216c17.7,0 32,-14.3 32,-32s-14.3,-32 -32,-32s-32,14.3 -32,32s14.3,32 32,32zm160,0c17.7,0 32,-14.3 32,-32s-14.3,-32 -32,-32s-32,14.3 -32,32s14.3,32 32,32zm4,72.6c-20.8,25 -51.5,39.4 -84,39.4s-63.2,-14.3 -84,-39.4c-8.5,-10.2 -23.7,-11.5 -33.8,-3.1c-10.2,8.5 -11.5,23.6 -3.1,33.8c30,36 74.1,56.6 120.9,56.6s90.9,-20.6 120.9,-56.6c8.5,-10.2 7.1,-25.3 -3.1,-33.8c-10.1,-8.4 -25.3,-7.1 -33.8,3.1z" fill="#ffffff" id="svg_1"/>
 </g>
</svg>