<?xml version="1.0"?>
<svg width="512" height="512" xmlns="http://www.w3.org/2000/svg" xmlns:svg="http://www.w3.org/2000/svg" xmlns:se="http://svg-edit.googlecode.com" class="svg-inline--fa fa-search fa-w-16" data-icon="search" data-prefix="fas">
 <g class="layer">
  <title>Layer 1</title>
  <path d="m505,442.7l-99.7,-99.7c-4.5,-4.5 -10.6,-7 -17,-7l-16.3,0c27.6,-35.3 44,-79.7 44,-128c0,-114.9 -93.1,-208 -208,-208s-208,93.1 -208,208s93.1,208 208,208c48.3,0 92.7,-16.4 128,-44l0,16.3c0,6.4 2.5,12.5 7,17l99.7,99.7c9.4,9.4 24.6,9.4 33.9,0l28.3,-28.3c9.4,-9.4 9.4,-24.6 0.1,-34zm-297,-106.7c-70.7,0 -128,-57.2 -128,-128c0,-70.7 57.2,-128 128,-128c70.7,0 128,57.2 128,128c0,70.7 -57.2,128 -128,128z" fill="#ffffff" id="svg_1"/>
 </g>
</svg>