<?xml version="1.0"?>
<svg width="448" height="512" xmlns="http://www.w3.org/2000/svg" xmlns:svg="http://www.w3.org/2000/svg" xmlns:se="http://svg-edit.googlecode.com" class="svg-inline--fa fa-building fa-w-14" data-icon="building" data-prefix="far">
 <g class="layer">
  <title>Layer 1</title>
  <path d="m128,148l0,-40c0,-6.6 5.4,-12 12,-12l40,0c6.6,0 12,5.4 12,12l0,40c0,6.6 -5.4,12 -12,12l-40,0c-6.6,0 -12,-5.4 -12,-12zm140,12l40,0c6.6,0 12,-5.4 12,-12l0,-40c0,-6.6 -5.4,-12 -12,-12l-40,0c-6.6,0 -12,5.4 -12,12l0,40c0,6.6 5.4,12 12,12zm-128,96l40,0c6.6,0 12,-5.4 12,-12l0,-40c0,-6.6 -5.4,-12 -12,-12l-40,0c-6.6,0 -12,5.4 -12,12l0,40c0,6.6 5.4,12 12,12zm128,0l40,0c6.6,0 12,-5.4 12,-12l0,-40c0,-6.6 -5.4,-12 -12,-12l-40,0c-6.6,0 -12,5.4 -12,12l0,40c0,6.6 5.4,12 12,12zm-76,84l0,-40c0,-6.6 -5.4,-12 -12,-12l-40,0c-6.6,0 -12,5.4 -12,12l0,40c0,6.6 5.4,12 12,12l40,0c6.6,0 12,-5.4 12,-12zm76,12l40,0c6.6,0 12,-5.4 12,-12l0,-40c0,-6.6 -5.4,-12 -12,-12l-40,0c-6.6,0 -12,5.4 -12,12l0,40c0,6.6 5.4,12 12,12zm180,124l0,36l-448,0l0,-36c0,-6.6 5.4,-12 12,-12l19.5,0l0,-440c0,-13.3 10.7,-24 24,-24l337,0c13.3,0 24,10.7 24,24l0,440l19.5,0c6.6,0 12,5.4 12,12zm-368.5,-13l112.5,0l0,-67c0,-6.6 5.4,-12 12,-12l40,0c6.6,0 12,5.4 12,12l0,67l112.5,0l0,-414l-288.5,-1l-0.5,415z" fill="#ffffff" id="svg_1"/>
 </g>
</svg>